<?xml version="1.0" encoding="utf-8"?>
<!-- Generator: Adobe Illustrator 16.0.0, SVG Export Plug-In . SVG Version: 6.00 Build 0)  -->
<!DOCTYPE svg PUBLIC "-//W3C//DTD SVG 1.1//EN" "http://www.w3.org/Graphics/SVG/1.1/DTD/svg11.dtd">
<svg version="1.1" id="Layer_1" xmlns="http://www.w3.org/2000/svg" xmlns:xlink="http://www.w3.org/1999/xlink" x="0px" y="0px"
	 width="960px" height="388.48px" viewBox="0 0 960 388.48" enable-background="new 0 0 960 388.48" xml:space="preserve">
<g>
	<path fill="#465250" d="M397.119,308.094c1.365,1.41,2.05,3.352,2.05,5.819v20.373c0,2.472-0.685,4.409-2.05,5.822
		c-1.367,1.415-3.245,2.117-5.631,2.117H250.214c-2.394,0-4.27-0.702-5.634-2.117c-1.368-1.413-2.049-3.351-2.049-5.822V156.744
		c0-2.467,0.681-4.409,2.049-5.818c1.364-1.411,3.24-2.12,5.634-2.12h25.346c2.391,0,4.267,0.709,5.635,2.12
		c1.363,1.409,2.049,3.351,2.049,5.818v149.229h108.244C393.874,305.974,395.751,306.685,397.119,308.094z"/>
	<path fill="#465250" d="M479.861,340.108c-1.366,1.415-3.244,2.117-5.632,2.117h-25.092c-2.389,0-4.269-0.702-5.632-2.117
		c-1.367-1.413-2.048-3.351-2.048-5.822V193.699c0-2.472,0.681-4.409,2.048-5.823c1.363-1.41,3.243-2.114,5.632-2.114h25.092
		c2.388,0,4.266,0.704,5.632,2.114c1.366,1.414,2.051,3.352,2.051,5.823v140.587C481.912,336.758,481.228,338.695,479.861,340.108z"
		/>
	<path fill="#465250" d="M704.749,340.526c-1.095,1.135-2.601,1.699-4.52,1.699h-19.917c-1.92,0-3.422-0.564-4.518-1.699
		c-1.1-1.133-1.644-2.686-1.644-4.664V193.474c0-1.979,0.544-3.534,1.644-4.669c1.096-1.13,2.598-1.698,4.518-1.698h60.577
		c10.676,0,20.117,2.266,28.334,6.79c8.214,4.53,14.579,10.896,19.101,19.101c4.515,8.201,6.773,17.54,6.773,28.007
		c0,11.179-2.741,21.153-8.215,29.921c-5.474,8.773-12.937,15.208-22.383,19.313l5.751,7.636c2.6,3.396,6.092,8.029,10.472,13.899
		c4.377,5.872,9.926,13.408,16.63,22.604c1.097,1.271,1.645,2.618,1.645,4.032c0,1.13-0.445,2.051-1.335,2.76
		c-0.889,0.704-2.156,1.058-3.8,1.058h-24.639c-3.149,0-5.682-1.202-7.6-3.609c-10.406-13.72-21.427-28.647-33.058-44.775h-22.175
		v42.021C706.392,337.841,705.842,339.394,704.749,340.526z M740.89,264.773c6.021,0,11.189-2.155,15.502-6.477
		c4.309-4.31,6.466-10.078,6.466-17.293c0-6.928-1.746-12.801-5.237-17.615c-3.49-4.805-9.068-7.212-16.73-7.212h-34.498v48.597
		H740.89z"/>
	<path fill="#74D1C6" d="M142.626,51.899c-2.949,0-4.626,4.087-4.626,7.037v19.649c0,2.95,1.677,5.314,4.626,5.314h19.649
		c2.947,0,4.725,2.455,4.725,5.402v244.717c0,2.949,3.044,6.881,5.993,6.881h23.221c2.948,0,5.786-3.932,5.786-6.881V58.936
		c0-2.95-2.838-7.037-5.786-7.037H142.626z"/>
	<path fill="#74D1C6" d="M122.797,11.347L21.492,51.416C18.754,52.504,16,55.808,16,58.755v271.061c0,2.951,2.132,6.271,4.861,7.387
		l102.003,41.229c2.728,1.118,6.136-0.38,6.136-3.331V14.725C129,11.779,125.537,10.259,122.797,11.347z M75,103.414v28.089
		l-21,6.028v-25.88l-17.196,6.472l0.311-23.061L54,88.641V62.15l21-8.967v27.226l20.55-7.938l0.411,22.872L75,103.414z"/>
	<path fill="#465250" d="M292.047,99.077c0.605,0,1.208,0.135,1.813,0.41l11.78,4.678c1.726,0.713,2.589,1.735,2.589,3.076
		c0,0.717-0.259,1.473-0.777,2.276c-4.746,7.4-10.873,13.13-18.382,17.192c-7.509,4.059-15.623,6.082-24.335,6.082
		c-9.15,0-17.627-2.25-25.439-6.755c-7.812-4.504-14.043-10.677-18.705-18.529c-4.576-7.845-6.862-16.321-6.862-25.417
		c0-9.006,2.287-17.41,6.862-25.215c4.574-7.806,10.785-13.979,18.64-18.528c7.769-4.55,16.268-6.823,25.504-6.823
		c8.454,0,16.46,2.052,24.012,6.151c7.552,4.105,13.74,9.723,18.575,16.858c0.518,0.801,0.777,1.563,0.777,2.273
		c0,1.337-0.821,2.366-2.459,3.076l-11.78,4.685c-0.605,0.268-1.254,0.399-1.943,0.399c-1.296,0-2.416-0.626-3.363-1.872
		c-3.11-3.833-6.753-6.861-10.942-9.097c-4.187-2.229-8.476-3.342-12.877-3.342c-5.438,0-10.487,1.427-15.148,4.282
		c-4.66,2.852-8.369,6.73-11.132,11.631c-2.764,4.912-4.142,10.087-4.142,15.521c0,5.532,1.358,10.721,4.075,15.59
		c2.721,4.853,6.409,8.714,11.066,11.563c4.662,2.944,9.754,4.423,15.28,4.423c4.571,0,8.993-1.096,13.267-3.28
		c4.272-2.186,7.833-5.238,10.68-9.166C289.719,99.791,290.838,99.077,292.047,99.077z"/>
	<path fill="#465250" d="M330.053,128.684c-4.678-2.739-8.418-6.471-11.224-11.194c-2.754-4.725-4.13-9.828-4.13-15.308
		c0-5.418,1.365-10.495,4.09-15.218c2.728-4.724,6.456-8.458,11.184-11.197c4.678-2.738,9.794-4.107,15.354-4.107
		c5.557,0,10.689,1.359,15.393,4.07c4.702,2.711,8.455,6.429,11.261,11.153c2.752,4.777,4.132,9.882,4.132,15.3
		c0,5.48-1.38,10.583-4.132,15.308c-2.753,4.723-6.497,8.455-11.224,11.194c-4.729,2.737-9.874,4.106-15.43,4.106
		C339.818,132.79,334.727,131.421,330.053,128.684z M336.209,85.834c-2.807,1.718-5.066,4.056-6.781,7.006
		c-1.661,2.954-2.494,6.069-2.494,9.341c0,3.335,0.833,6.458,2.494,9.385c1.662,2.927,3.896,5.276,6.704,7.045
		c2.804,1.772,5.87,2.664,9.196,2.664c3.273,0,6.337-0.891,9.198-2.664c2.854-1.77,5.114-4.132,6.778-7.085
		c1.611-2.845,2.417-5.96,2.417-9.345c0-3.328-0.819-6.442-2.457-9.341c-1.635-2.899-3.857-5.233-6.664-7.006
		c-2.911-1.718-6-2.575-9.273-2.575C342.053,83.26,339.016,84.116,336.209,85.834z"/>
	<path fill="#465250" d="M398.402,129.248c0,0.749-0.209,1.342-0.625,1.768c-0.415,0.432-0.988,0.645-1.712,0.645h-7.563
		c-0.726,0-1.298-0.213-1.713-0.645c-0.414-0.426-0.624-1.019-0.624-1.768V74.154c0-0.427,0.102-0.763,0.312-1.005
		c0.206-0.24,0.493-0.363,0.856-0.363c0.574,0,1.144,0.27,1.716,0.808l36.396,33.264V75.285c0-0.753,0.21-1.342,0.625-1.773
		c0.416-0.428,0.985-0.645,1.713-0.645h7.639c0.727,0,1.299,0.216,1.715,0.645c0.416,0.431,0.623,1.02,0.623,1.773v54.285
		c0,0.642-0.128,1.166-0.389,1.571c-0.26,0.402-0.599,0.602-1.013,0.602c-0.468,0-0.885-0.185-1.248-0.562l-36.708-33.024V129.248z"
		/>
	<path fill="#465250" d="M448.902,123.207c0-0.482,0.182-0.994,0.545-1.531l3.899-5.802c0.414-0.746,0.986-1.123,1.714-1.123
		c0.468,0,0.961,0.187,1.48,0.563c2.441,1.718,5.261,3.155,8.456,4.309c3.196,1.153,6.089,1.731,8.69,1.731
		c3.169,0,5.713-0.63,7.638-1.893c1.922-1.259,2.884-2.806,2.884-4.631c0-2.63-1.975-4.507-5.924-5.636l-6.781-1.452
		c-4.469-0.753-8.145-1.664-11.025-2.739c-2.884-1.071-5.47-2.765-7.756-5.072c-2.547-2.471-3.821-5.88-3.821-10.229
		c0-5.962,2.118-10.42,6.354-13.37c4.233-2.951,9.649-4.429,16.248-4.429c4.105,0,7.769,0.521,10.991,1.567
		c3.22,1.048,6.416,2.674,9.585,4.875c0.728,0.534,1.093,1.157,1.093,1.852c0,0.592-0.185,1.103-0.547,1.53l-4.13,5.799
		c-0.468,0.753-1.04,1.13-1.716,1.13c-0.521,0-1.04-0.188-1.559-0.565c-2.286-1.502-4.638-2.656-7.054-3.461
		c-2.416-0.807-4.79-1.211-7.128-1.211c-2.704,0-5.017,0.486-6.938,1.452c-1.925,0.965-2.882,2.417-2.882,4.347
		c0,1.184,0.49,2.177,1.479,2.981c0.986,0.805,2.208,1.4,3.661,1.773c1.042,0.319,3.092,0.831,6.161,1.53l2.803,0.562
		c4.835,0.968,8.574,1.988,11.225,3.063c2.648,1.071,4.936,2.762,6.857,5.072c2.076,2.471,3.119,5.908,3.119,10.307
		c0,5.856-2.017,10.365-6.042,13.535c-4.025,3.169-9.574,4.75-16.639,4.75c-9.406,0-17.381-2.579-23.929-7.732
		C449.242,124.523,448.902,123.904,448.902,123.207z"/>
	<path fill="#465250" d="M517.955,129.647c-3.846-2.038-6.831-4.935-8.961-8.695c-2.133-3.812-3.196-8.187-3.196-13.128V75.285
		c0-0.753,0.206-1.342,0.623-1.773c0.415-0.428,0.985-0.645,1.716-0.645h7.637c0.729,0,1.297,0.216,1.717,0.645
		c0.414,0.431,0.623,1.02,0.623,1.773v32.539c0,3.22,0.673,5.908,2.025,8.05c1.35,2.149,3.116,3.684,5.3,4.595
		c1.869,0.858,3.843,1.286,5.922,1.286c2.08,0,4.103-0.452,6.08-1.369c1.974-0.91,3.611-2.362,4.91-4.346
		c1.402-2.041,2.105-4.778,2.105-8.215V75.285c0-0.753,0.206-1.342,0.623-1.773c0.414-0.428,0.986-0.645,1.713-0.645h7.641
		c0.725,0,1.296,0.216,1.714,0.645c0.415,0.431,0.622,1.02,0.622,1.773v32.539c0,4.994-1.04,9.371-3.116,13.128
		c-2.079,3.761-5.043,6.658-8.886,8.695c-3.847,2.041-8.314,3.063-13.406,3.063C526.27,132.709,521.801,131.688,517.955,129.647z"/>
	<path fill="#465250" d="M611.245,121.276c0.417,0.427,0.623,1.019,0.623,1.768v6.204c0,0.749-0.206,1.342-0.623,1.768
		c-0.417,0.432-0.985,0.645-1.713,0.645h-37.566c-0.729,0-1.3-0.213-1.714-0.645c-0.418-0.426-0.625-1.019-0.625-1.768V75.202
		c0-0.749,0.207-1.342,0.625-1.772c0.414-0.424,0.985-0.644,1.714-0.644h7.714c0.729,0,1.299,0.22,1.717,0.644
		c0.417,0.431,0.622,1.023,0.622,1.772v45.426h27.514C610.26,120.628,610.828,120.844,611.245,121.276z"/>
	<path fill="#465250" d="M651.541,83.179c-0.417,0.431-0.987,0.643-1.716,0.643h-14.188v45.427c0,0.749-0.206,1.342-0.623,1.768
		c-0.414,0.432-0.985,0.645-1.713,0.645h-7.716c-0.73,0-1.299-0.213-1.714-0.645c-0.417-0.426-0.626-1.019-0.626-1.768V83.821
		h-14.259c-0.729,0-1.302-0.211-1.716-0.643c-0.414-0.432-0.623-1.021-0.623-1.773v-6.203c0-0.749,0.209-1.342,0.623-1.772
		c0.414-0.424,0.986-0.644,1.716-0.644h40.838c0.729,0,1.299,0.22,1.716,0.644c0.412,0.431,0.621,1.023,0.621,1.772v6.203
		C652.162,82.158,651.953,82.747,651.541,83.179z"/>
	<g>
		<path fill="#74D1C6" d="M686.144,141.721c-7.09,0-13.75-1.795-19.788-5.33c-5.909-3.457-10.696-8.215-14.29-14.192L588.62,255.966
			l-45.835-64.315c-1.71-3.877-4.784-5.751-9.22-5.751h-27.907c-4.442,0-6.658,1.696-6.658,5.221c0,1.237,0.34,2.523,1.024,3.935
			l67.418,141.1c1.534,2.827,3.763,5.834,16.359,5.834c4.266,0,8.741-3.022,9.939-5.846l93.146-194.441
			C686.641,141.703,686.393,141.721,686.144,141.721z"/>
		<path fill="#74D1C6" d="M739.565,10.899h-28.164c-4.44,0-7.509,1.848-9.215,5.723l-22.14,46.627
			c1.991-0.304,4.021-0.496,6.097-0.496c7.117,0,13.799,1.757,19.856,5.25c4.47,2.581,8.304,5.899,11.445,9.907l27.754-57.936
			c0.682-1.412,1.024-2.639,1.024-3.878C746.224,12.57,744.006,10.899,739.565,10.899z"/>
	</g>
	<path fill="#465250" d="M738.593,131.016c-0.417,0.432-0.985,0.645-1.716,0.645h-7.561c-0.726,0-1.296-0.213-1.711-0.645
		c-0.417-0.426-0.623-1.019-0.623-1.768V75.202c0-0.749,0.206-1.342,0.623-1.772c0.415-0.424,0.985-0.644,1.711-0.644h22.996
		c4.054,0,7.637,0.862,10.755,2.581c3.114,1.718,5.532,4.135,7.248,7.246c1.713,3.116,2.57,6.658,2.57,10.632
		c0,4.242-1.038,8.027-3.117,11.355c-2.078,3.332-4.906,5.778-8.495,7.332l2.186,2.898c0.984,1.292,2.309,3.047,3.97,5.274
		c1.663,2.229,3.77,5.088,6.315,8.58c0.412,0.485,0.624,0.992,0.624,1.528c0,0.432-0.169,0.779-0.508,1.049
		c-0.34,0.271-0.818,0.401-1.44,0.401h-9.353c-1.198,0-2.157-0.452-2.886-1.369c-3.951-5.204-8.131-10.872-12.546-16.992h-8.42
		v15.948C739.216,129.997,739.01,130.59,738.593,131.016z M752.313,102.264c2.282,0,4.244-0.818,5.881-2.458
		c1.636-1.636,2.458-3.824,2.458-6.562c0-2.631-0.664-4.856-1.988-6.685c-1.324-1.824-3.445-2.738-6.351-2.738h-13.097v18.443
		H752.313z"/>
	<path fill="#465250" d="M796.891,131.016c-0.418,0.432-0.99,0.645-1.716,0.645h-7.637c-0.729,0-1.3-0.213-1.716-0.645
		c-0.417-0.426-0.623-1.019-0.623-1.768V75.202c0-0.749,0.206-1.342,0.623-1.772c0.416-0.424,0.987-0.644,1.716-0.644h7.637
		c0.726,0,1.298,0.22,1.716,0.644c0.414,0.431,0.623,1.023,0.623,1.772v54.046C797.514,129.997,797.305,130.59,796.891,131.016z"/>
	<path fill="#465250" d="M823.856,128.684c-4.68-2.739-8.417-6.471-11.225-11.194c-2.751-4.725-4.128-9.828-4.128-15.308
		c0-5.418,1.363-10.495,4.088-15.218c2.731-4.724,6.454-8.458,11.185-11.197c4.679-2.738,9.795-4.107,15.356-4.107
		c5.559,0,10.686,1.359,15.39,4.07s8.454,6.429,11.261,11.153c2.752,4.777,4.136,9.882,4.136,15.3c0,5.48-1.384,10.583-4.136,15.308
		c-2.75,4.723-6.493,8.455-11.219,11.194c-4.73,2.737-9.873,4.106-15.432,4.106C833.622,132.79,828.529,131.421,823.856,128.684z
		 M830.015,85.834c-2.809,1.718-5.066,4.056-6.785,7.006c-1.659,2.954-2.492,6.069-2.492,9.341c0,3.335,0.833,6.458,2.492,9.385
		c1.664,2.927,3.898,5.276,6.706,7.045c2.802,1.772,5.87,2.664,9.197,2.664c3.272,0,6.336-0.891,9.194-2.664
		c2.855-1.77,5.115-4.132,6.779-7.085c1.613-2.845,2.417-5.96,2.417-9.345c0-3.328-0.817-6.442-2.454-9.341
		c-1.636-2.899-3.861-5.233-6.663-7.006c-2.913-1.718-6.001-2.575-9.273-2.575C835.856,83.26,832.82,84.116,830.015,85.834z"/>
	<path fill="#465250" d="M670.867,128.684c-4.677-2.739-8.416-6.471-11.222-11.194c-2.756-4.725-4.134-9.828-4.134-15.308
		c0-5.418,1.364-10.495,4.095-15.218c2.726-4.724,6.454-8.458,11.184-11.197c4.677-2.738,9.79-4.107,15.354-4.107
		c5.555,0,10.688,1.359,15.393,4.07c4.699,2.711,8.456,6.429,11.261,11.153c2.754,4.777,4.13,9.882,4.13,15.3
		c0,5.48-1.376,10.583-4.13,15.308c-2.754,4.723-6.494,8.455-11.224,11.194c-4.727,2.737-9.875,4.106-15.43,4.106
		C680.636,132.79,675.543,131.421,670.867,128.684z M677.021,85.834c-2.805,1.718-5.063,4.056-6.777,7.006
		c-1.665,2.954-2.496,6.069-2.496,9.341c0,3.335,0.831,6.458,2.496,9.385c1.663,2.927,3.894,5.276,6.703,7.045
		c2.805,1.772,5.869,2.664,9.196,2.664c3.273,0,6.336-0.891,9.197-2.664c2.855-1.77,5.114-4.132,6.777-7.085
		c1.613-2.845,2.418-5.96,2.418-9.345c0-3.328-0.816-6.442-2.455-9.341c-1.637-2.899-3.857-5.233-6.664-7.006
		c-2.91-1.718-6-2.575-9.273-2.575C682.866,83.26,679.828,84.116,677.021,85.834z"/>
	<path fill="#465250" d="M936.561,197.808c1.027,0.995,1.535,2.359,1.535,4.094v18.219c0,1.735-0.508,3.1-1.535,4.089
		c-1.026,0.995-2.435,1.489-4.227,1.489h-96.547c-1.793,0-3.199-0.494-4.228-1.489c-1.024-0.989-1.534-2.354-1.534-4.089v-18.219
		c0-1.734,0.51-3.099,1.534-4.094c1.028-0.989,2.435-1.486,4.228-1.486h96.547C934.126,196.321,935.534,196.818,936.561,197.808z"/>
	<path fill="#465250" d="M936.561,253.465c1.027,0.995,1.535,2.357,1.535,4.092v18.219c0,1.737-0.508,3.102-1.535,4.091
		c-1.026,0.995-2.435,1.487-4.227,1.487h-96.547c-1.793,0-3.199-0.492-4.228-1.487c-1.024-0.989-1.534-2.354-1.534-4.091v-18.219
		c0-1.734,0.51-3.097,1.534-4.092c1.028-0.989,2.435-1.487,4.228-1.487h96.547C934.126,251.978,935.534,252.476,936.561,253.465z"/>
	<path fill="#465250" d="M936.561,314.109c1.027,0.994,1.535,2.358,1.535,4.092v18.218c0,1.737-0.508,3.102-1.535,4.092
		c-1.026,0.994-2.435,1.488-4.227,1.488h-96.547c-1.793,0-3.199-0.494-4.228-1.488c-1.024-0.99-1.534-2.354-1.534-4.092v-18.218
		c0-1.733,0.51-3.098,1.534-4.092c1.028-0.99,2.435-1.486,4.228-1.486h96.547C934.126,312.623,935.534,313.119,936.561,314.109z"/>
</g>
</svg>
